HIERARCHY
ROOT newVegas:Hips
{
	OFFSET 0.000000 96.479958 0.000000
	CHANNELS 6 Xposition Yposition Zposition Xrotation Yrotation Zrotation
	JOINT newVegas:Pelvis
	{
		OFFSET 0.000000 0.000000 0.000000
		CHANNELS 3 Xrotation Yrotation Zrotation
		JOINT newVegas:LeftUpLeg
		{
			OFFSET 18.735201 -5.666702 -4.541200
			CHANNELS 3 Xrotation Yrotation Zrotation
			JOINT newVegas:LeftLeg
			{
				OFFSET -0.021200 -31.938179 0.493100
				CHANNELS 3 Xrotation Yrotation Zrotation
				JOINT newVegas:LeftFoot
				{
					OFFSET 0.021200 -31.938179 -4.336299
					CHANNELS 3 Xrotation Yrotation Zrotation
					JOINT newVegas:LeftToeBase
					{
						OFFSET 0.943001 -26.722000 15.023500
						CHANNELS 3 Xrotation Yrotation Zrotation
						End Site
						{
							OFFSET 0.000000 30.670183 0.000000
						}
					}
				}
				JOINT newVegas:Left_PantLeg
				{
					OFFSET 0.663870 -9.044666 -1.108900
					CHANNELS 3 Xrotation Yrotation Zrotation
					End Site
					{
						OFFSET 1.415995 20.635357 0.000000
					}
				}
			}
		}
		JOINT newVegas:RightUpLeg
		{
			OFFSET -18.735201 -5.666702 -4.541200
			CHANNELS 3 Xrotation Yrotation Zrotation
			JOINT newVegas:RightLeg
			{
				OFFSET 0.018946 -31.938133 0.493100
				CHANNELS 3 Xrotation Yrotation Zrotation
				JOINT newVegas:RightFoot
				{
					OFFSET -0.018946 -31.938126 -4.336299
					CHANNELS 3 Xrotation Yrotation Zrotation
					JOINT newVegas:RightToeBase
					{
						OFFSET -0.943001 -26.722004 15.023500
						CHANNELS 3 Xrotation Yrotation Zrotation
						End Site
						{
							OFFSET 0.000000 30.670187 0.000000
						}
					}
				}
				JOINT newVegas:Right_PantLeg
				{
					OFFSET -0.661674 -9.044716 -1.108900
					CHANNELS 3 Xrotation Yrotation Zrotation
					End Site
					{
						OFFSET -1.415958 20.635269 0.000000
					}
				}
			}
		}
	}
	JOINT newVegas:Spine
	{
		OFFSET 0.000000 10.199997 -0.299500
		CHANNELS 3 Xrotation Yrotation Zrotation
		JOINT newVegas:Spine1
		{
			OFFSET 0.000000 11.900002 -1.516600
			CHANNELS 3 Xrotation Yrotation Zrotation
			JOINT newVegas:Spine2
			{
				OFFSET 0.000000 13.600006 -2.842500
				CHANNELS 3 Xrotation Yrotation Zrotation
				JOINT newVegas:Neck
				{
					OFFSET 0.000000 9.624100 -2.890100
					CHANNELS 3 Xrotation Yrotation Zrotation
					JOINT newVegas:Head
					{
						OFFSET 0.000000 14.068802 -1.351900
						CHANNELS 3 Xrotation Yrotation Zrotation
						JOINT newVegas:Hair_Back
						{
							OFFSET 0.000000 3.231903 -17.524799
							CHANNELS 3 Xrotation Yrotation Zrotation
							End Site
							{
								OFFSET 0.000000 19.849884 0.000000
							}
						}
						JOINT newVegas:Hair_Front
						{
							OFFSET 0.000000 31.260406 4.573800
							CHANNELS 3 Xrotation Yrotation Zrotation
							JOINT newVegas:Hair_Front1
							{
								OFFSET 0.000000 2.284103 11.993300
								CHANNELS 3 Xrotation Yrotation Zrotation
								JOINT newVegas:Hair_Front2
								{
									OFFSET 0.000000 2.284103 11.993300
									CHANNELS 3 Xrotation Yrotation Zrotation
									End Site
									{
										OFFSET 0.000000 12.208862 0.000000
									}
								}
							}
						}
						JOINT newVegas:Jowel
						{
							OFFSET 0.000000 -7.458206 6.864100
							CHANNELS 3 Xrotation Yrotation Zrotation
							End Site
							{
								OFFSET 0.000000 19.849884 0.000000
							}
						}
					}
				}
				JOINT newVegas:LeftShoulder
				{
					OFFSET 15.263000 10.923401 -0.547700
					CHANNELS 3 Xrotation Yrotation Zrotation
					JOINT newVegas:LeftArm
					{
						OFFSET 25.438599 -2.830597 -13.032500
						CHANNELS 3 Xrotation Yrotation Zrotation
						JOINT newVegas:LeftForeArm
						{
							OFFSET 29.960503 0.000000 0.000000
							CHANNELS 3 Xrotation Yrotation Zrotation
							JOINT newVegas:LeftHand
							{
								OFFSET 27.849251 0.000000 0.000000
								CHANNELS 3 Xrotation Yrotation Zrotation
								JOINT newVegas:LeftHandThumb1
								{
									OFFSET 4.487587 -3.305161 6.305391
									CHANNELS 3 Xrotation Yrotation Zrotation
									JOINT newVegas:LeftHandThumb2
									{
										OFFSET 5.480453 -3.164139 3.164143
										CHANNELS 3 Xrotation Yrotation Zrotation
										JOINT newVegas:LeftHandThumb3
										{
											OFFSET 5.159721 -2.978973 2.978967
											CHANNELS 3 Xrotation Yrotation Zrotation
											End Site
											{
												OFFSET 2.494507 5.926697 1.738678
											}
										}
									}
								}
								JOINT newVegas:LeftHandIndex1
								{
									OFFSET 18.578728 -0.527832 5.208049
									CHANNELS 3 Xrotation Yrotation Zrotation
									JOINT newVegas:LeftHandIndex2
									{
										OFFSET 3.192009 0.000000 0.000000
										CHANNELS 3 Xrotation Yrotation Zrotation
										JOINT newVegas:LeftHandIndex3
										{
											OFFSET 3.835129 0.000000 0.000000
											CHANNELS 3 Xrotation Yrotation Zrotation
											End Site
											{
												OFFSET -0.034599 3.816971 0.371180
											}
										}
									}
								}
								JOINT newVegas:LeftHandMiddle1
								{
									OFFSET 18.476105 0.000000 0.000000
									CHANNELS 3 Xrotation Yrotation Zrotation
									JOINT newVegas:LeftHandMiddle2
									{
										OFFSET 3.324875 0.000000 0.000000
										CHANNELS 3 Xrotation Yrotation Zrotation
										JOINT newVegas:LeftHandMiddle3
										{
											OFFSET 4.596550 0.000000 0.000000
											CHANNELS 3 Xrotation Yrotation Zrotation
											End Site
											{
												OFFSET 0.057701 4.578827 0.399218
											}
										}
									}
								}
								JOINT newVegas:LeftHandRing1
								{
									OFFSET 17.732719 0.121887 -4.201567
									CHANNELS 3 Xrotation Yrotation Zrotation
									JOINT newVegas:LeftHandRing2
									{
										OFFSET 2.733170 0.000000 0.000000
										CHANNELS 3 Xrotation Yrotation Zrotation
										JOINT newVegas:LeftHandRing3
										{
											OFFSET 3.178268 0.000000 0.000000
											CHANNELS 3 Xrotation Yrotation Zrotation
											End Site
											{
												OFFSET 0.119102 3.170624 0.185394
											}
										}
									}
								}
								JOINT newVegas:LeftHandPinky1
								{
									OFFSET 15.989624 -0.606689 -7.535461
									CHANNELS 3 Xrotation Yrotation Zrotation
									JOINT newVegas:LeftHandPinky2
									{
										OFFSET 2.538986 0.000000 0.000000
										CHANNELS 3 Xrotation Yrotation Zrotation
										JOINT newVegas:LeftHandPinky3
										{
											OFFSET 2.593102 0.000000 0.000000
											CHANNELS 3 Xrotation Yrotation Zrotation
											End Site
											{
												OFFSET -0.150902 2.584198 0.152708
											}
										}
									}
								}
							}
							JOINT newVegas:Left_Sleeve
							{
								OFFSET 0.267448 -0.649796 0.577675
								CHANNELS 3 Xrotation Yrotation Zrotation
								End Site
								{
									OFFSET 0.000000 15.991241 0.000000
								}
							}
							JOINT newVegas:Left_CapeC
							{
								OFFSET 15.715958 -8.608795 -6.935905
								CHANNELS 3 Xrotation Yrotation Zrotation
								JOINT newVegas:Left_CapeC1
								{
									OFFSET 0.000000 -8.688499 0.000000
									CHANNELS 3 Xrotation Yrotation Zrotation
									End Site
									{
										OFFSET 0.000000 8.688499 0.000000
									}
								}
							}
						}
						JOINT newVegas:Left_CapeB
						{
							OFFSET 26.118385 -8.608795 -7.079235
							CHANNELS 3 Xrotation Yrotation Zrotation
							JOINT newVegas:Left_CapeB1
							{
								OFFSET 0.000000 -8.688499 0.000000
								CHANNELS 3 Xrotation Yrotation Zrotation
								End Site
								{
									OFFSET 0.000000 8.688499 0.000000
								}
							}
						}
						JOINT newVegas:Left_CapeA
						{
							OFFSET 5.115639 -8.608795 -10.395809
							CHANNELS 3 Xrotation Yrotation Zrotation
							JOINT newVegas:Left_CapeA1
							{
								OFFSET 0.000000 -8.688499 0.000000
								CHANNELS 3 Xrotation Yrotation Zrotation
								End Site
								{
									OFFSET 0.000000 8.688499 0.000000
								}
							}
						}
					}
				}
				JOINT newVegas:RightShoulder
				{
					OFFSET -15.263000 10.923401 -0.547700
					CHANNELS 3 Xrotation Yrotation Zrotation
					JOINT newVegas:RightArm
					{
						OFFSET -25.438599 -2.830597 -13.032500
						CHANNELS 3 Xrotation Yrotation Zrotation
						JOINT newVegas:RightForeArm
						{
							OFFSET -29.960503 0.000000 0.000000
							CHANNELS 3 Xrotation Yrotation Zrotation
							JOINT newVegas:RightHand
							{
								OFFSET -27.849251 0.000000 0.000000
								CHANNELS 3 Xrotation Yrotation Zrotation
								JOINT newVegas:RightHandThumb1
								{
									OFFSET -4.487587 -3.305161 6.305391
									CHANNELS 3 Xrotation Yrotation Zrotation
									JOINT newVegas:RightHandThumb2
									{
										OFFSET -5.480453 -3.164139 3.164143
										CHANNELS 3 Xrotation Yrotation Zrotation
										JOINT newVegas:RightHandThumb3
										{
											OFFSET -5.159721 -2.978973 2.978967
											CHANNELS 3 Xrotation Yrotation Zrotation
											End Site
											{
												OFFSET -2.494507 5.926697 1.738678
											}
										}
									}
								}
								JOINT newVegas:RightHandIndex1
								{
									OFFSET -18.578728 -0.527832 5.208049
									CHANNELS 3 Xrotation Yrotation Zrotation
									JOINT newVegas:RightHandIndex2
									{
										OFFSET -3.192009 0.000000 0.000000
										CHANNELS 3 Xrotation Yrotation Zrotation
										JOINT newVegas:RightHandIndex3
										{
											OFFSET -3.835129 0.000000 0.000000
											CHANNELS 3 Xrotation Yrotation Zrotation
											End Site
											{
												OFFSET 0.034599 3.816971 0.371180
											}
										}
									}
								}
								JOINT newVegas:RightHandMiddle1
								{
									OFFSET -18.476105 0.000000 0.000000
									CHANNELS 3 Xrotation Yrotation Zrotation
									JOINT newVegas:RightHandMiddle2
									{
										OFFSET -3.324875 0.000000 0.000000
										CHANNELS 3 Xrotation Yrotation Zrotation
										JOINT newVegas:RightHandMiddle3
										{
											OFFSET -4.596550 0.000000 0.000000
											CHANNELS 3 Xrotation Yrotation Zrotation
											End Site
											{
												OFFSET -0.057701 4.578827 0.399218
											}
										}
									}
								}
								JOINT newVegas:RightHandRing1
								{
									OFFSET -17.732719 0.121887 -4.201567
									CHANNELS 3 Xrotation Yrotation Zrotation
									JOINT newVegas:RightHandRing2
									{
										OFFSET -2.733170 0.000000 0.000000
										CHANNELS 3 Xrotation Yrotation Zrotation
										JOINT newVegas:RightHandRing3
										{
											OFFSET -3.178268 0.000000 0.000000
											CHANNELS 3 Xrotation Yrotation Zrotation
											End Site
											{
												OFFSET -0.119102 3.170624 0.185394
											}
										}
									}
								}
								JOINT newVegas:RightHandPinky1
								{
									OFFSET -15.989624 -0.606689 -7.535461
									CHANNELS 3 Xrotation Yrotation Zrotation
									JOINT newVegas:RightHandPinky2
									{
										OFFSET -2.538986 0.000000 0.000000
										CHANNELS 3 Xrotation Yrotation Zrotation
										JOINT newVegas:RightHandPinky3
										{
											OFFSET -2.593102 0.000000 0.000000
											CHANNELS 3 Xrotation Yrotation Zrotation
											End Site
											{
												OFFSET 0.150902 2.584198 0.152708
											}
										}
									}
								}
							}
							JOINT newVegas:Right_CapeC
							{
								OFFSET -15.715958 -8.608795 -6.935905
								CHANNELS 3 Xrotation Yrotation Zrotation
								JOINT newVegas:Right_CapeC1
								{
									OFFSET 0.000000 -8.688499 0.000000
									CHANNELS 3 Xrotation Yrotation Zrotation
									End Site
									{
										OFFSET 0.000000 8.688499 0.000000
									}
								}
							}
							JOINT newVegas:Right_Sleeve
							{
								OFFSET -0.267448 -0.649994 0.577675
								CHANNELS 3 Xrotation Yrotation Zrotation
								End Site
								{
									OFFSET 0.000000 15.991302 0.000000
								}
							}
						}
						JOINT newVegas:Right_CapeA
						{
							OFFSET -5.115540 -8.608795 -10.395824
							CHANNELS 3 Xrotation Yrotation Zrotation
							JOINT newVegas:Right_CapeA1
							{
								OFFSET 0.000000 -8.688499 0.000000
								CHANNELS 3 Xrotation Yrotation Zrotation
								End Site
								{
									OFFSET 0.000000 8.688499 0.000000
								}
							}
						}
						JOINT newVegas:Right_CapeB
						{
							OFFSET -26.118187 -8.608795 -7.079266
							CHANNELS 3 Xrotation Yrotation Zrotation
							JOINT newVegas:Right_CapeB1
							{
								OFFSET 0.000000 -8.688499 0.000000
								CHANNELS 3 Xrotation Yrotation Zrotation
								End Site
								{
									OFFSET 0.000000 8.688499 0.000000
								}
							}
						}
					}
				}
				JOINT newVegas:Left_Collar
				{
					OFFSET 18.625099 8.655502 8.828100
					CHANNELS 3 Xrotation Yrotation Zrotation
					JOINT newVegas:Left_Collar1
					{
						OFFSET 14.783401 10.540405 -1.259500
						CHANNELS 3 Xrotation Yrotation Zrotation
						End Site
						{
							OFFSET 0.000000 18.199875 0.000000
						}
					}
				}
				JOINT newVegas:Collar_Back
				{
					OFFSET 0.000000 15.630707 -20.132601
					CHANNELS 3 Xrotation Yrotation Zrotation
					End Site
					{
						OFFSET 0.000000 22.523010 0.000000
					}
				}
				JOINT newVegas:Left_Peck
				{
					OFFSET 17.239599 -5.132599 25.482599
					CHANNELS 3 Xrotation Yrotation Zrotation
					End Site
					{
						OFFSET 0.000000 22.523010 0.000000
					}
				}
				JOINT newVegas:Right_Peck
				{
					OFFSET -17.239599 -5.132202 25.482599
					CHANNELS 3 Xrotation Yrotation Zrotation
					End Site
					{
						OFFSET 0.000000 22.523010 0.000000
					}
				}
				JOINT newVegas:Right_Collar
				{
					OFFSET -18.625099 8.655792 8.828100
					CHANNELS 3 Xrotation Yrotation Zrotation
					JOINT newVegas:Right_Collar1
					{
						OFFSET -14.783401 10.539993 -1.259500
						CHANNELS 3 Xrotation Yrotation Zrotation
						End Site
						{
							OFFSET 0.000000 18.199631 0.000000
						}
					}
				}
			}
		}
		JOINT newVegas:Belly
		{
			OFFSET 0.000000 -6.540398 9.014299
			CHANNELS 3 Xrotation Yrotation Zrotation
			End Site
			{
				OFFSET 0.000000 11.566666 0.000000
			}
		}
	}
	JOINT newVegas:ElvisFacialAnim_Joint
	{
		OFFSET 1.000000 -95.330101 -8.825800
		CHANNELS 3 Xrotation Yrotation Zrotation
		End Site
		{
			OFFSET 0.000000 35.315800 0.000000
		}
	}
}
MOTION
Frames: 4
Frame Time: 0.016667
-11.267172 72.272888 1.388632 -2.901985 4.705132 -0.024820 0.000000 0.000000 0.000000 -72.865401 -8.572826 4.557016 60.404274 -19.731686 -9.168387 11.542538 -4.049540 -4.934144 0.000000 -0.000001 0.000000 -0.000000 -0.000001 0.000001 -11.219018 -2.465822 -4.556444 86.248815 -9.792815 -6.787505 -41.850816 -3.322109 19.869348 -0.000000 0.000000 0.000000 0.000001 0.000002 0.000000 8.953663 0.270738 -1.351172 3.966864 0.230935 -3.978306 3.989347 0.231038 -3.977842 0.874941 -1.742024 2.141496 0.874928 -1.742029 2.141506 0.000002 0.000000 0.000000 0.875012 -1.742013 2.141498 0.875011 -1.742035 2.141503 -0.000001 0.000000 0.000000 0.000002 0.000000 0.000000 -8.173990 -31.527982 -8.252503 -31.588563 -14.766833 -24.997729 -124.594467 -59.639655 -127.258637 -8.365616 -5.660516 17.684038 15.614811 18.236692 11.488241 11.421606 30.331337 -11.339197 -0.000002 0.000000 -0.000001 19.961291 12.194230 -48.814392 -0.280072 1.062268 -128.835208 -0.000001 -0.000002 -0.000001 7.703396 10.532959 -62.910892 0.990442 -0.061699 -121.377352 -0.000001 0.000000 -0.000000 0.948600 15.112190 -68.414317 0.879494 -0.210899 -117.521191 -0.000000 0.000001 0.000000 -16.314204 19.696898 -71.347678 0.695830 -0.323423 -142.818436 0.000001 0.000002 0.000003 0.000001 -0.000003 -0.000001 0.000001 -0.000003 -0.000001 0.000001 -0.000002 -0.000001 0.000000 0.000000 -0.000001 0.000000 -0.000001 -0.000002 0.000000 0.000000 -0.000001 0.000000 -0.000002 -0.000001 -8.947958 32.923240 10.353822 -34.168414 8.238676 31.408854 50.102819 118.312318 -44.867513 -7.430171 8.835777 -25.387543 17.261075 -16.812980 -12.690455 10.409533 -24.931145 14.714524 0.000001 -0.000003 0.000001 19.952630 -0.387298 46.095929 -0.057015 -1.141813 137.151551 0.000000 -0.000002 -0.000003 6.186500 -2.518720 61.008028 0.941164 0.201330 126.871392 0.000002 -0.000003 0.000001 0.195751 -7.578781 62.006219 0.865266 0.303851 119.921483 -0.000002 -0.000001 0.000002 -17.990689 -11.912573 65.482656 0.676342 0.402134 146.296109 0.000001 0.000003 0.000000 -0.000001 -0.000001 -0.000000 -0.000001 -0.000001 0.000003 -0.000001 -0.000001 -0.000001 0.000000 -0.000001 -0.000002 0.000000 0.000000 -0.000001 0.000000 -0.000001 -0.000002 0.000000 -0.000000 -0.000000 -0.000001 0.000000 0.000000 -0.000001 0.000000 0.000000 -0.000001 0.000000 0.000000 -0.000001 0.000000 0.000000 -0.000001 0.000000 0.000000 -0.000001 0.000000 0.000000 -0.000001 0.000000 0.000000 0.000000 -0.000000 0.000000 0.000000 0.000000 0.000000 
-11.406328 73.777847 1.706546 -0.962198 6.226954 0.174588 0.000000 -0.000000 -0.000000 -71.585990 -8.351559 2.939978 55.691552 -19.488628 -8.288756 12.774067 -3.854085 -5.957364 0.000000 -0.000001 0.000000 0.000000 -0.000001 -0.000000 -10.606439 -3.800287 -3.724194 81.515992 -10.598477 -7.074417 -41.438525 -2.811007 18.871401 0.000001 -0.000000 0.000000 -0.000000 0.000001 -0.000000 8.258306 0.184951 -1.487995 2.568483 -0.078458 -4.312726 2.590949 -0.078385 -4.312242 -0.109961 -1.916566 1.903071 -0.109963 -1.916567 1.903074 0.000000 0.000000 0.000001 -0.109892 -1.916561 1.903077 -0.110038 -1.916568 1.903067 0.000000 -0.000000 -0.000000 0.000000 0.000000 0.000000 -8.485026 -28.820475 -9.252587 -25.663304 -15.710627 -18.176242 -134.370284 -56.428970 -136.822568 -8.621288 -3.463228 20.162329 14.821213 17.379391 11.215553 10.269861 28.734869 -10.694110 -0.000003 -0.000003 -0.000001 16.649754 9.371660 -44.593940 -0.351046 0.994006 -120.047364 0.000000 -0.000002 -0.000000 6.076244 7.776689 -58.086852 1.006481 0.042492 -113.465691 -0.000000 0.000003 0.000001 0.133095 12.601289 -64.387210 0.867706 -0.128608 -110.199782 0.000001 0.000001 0.000000 -15.415759 16.999660 -68.075000 0.714994 -0.240022 -133.253220 -0.000002 -0.000005 -0.000003 0.000000 0.000002 0.000000 0.000000 0.000002 0.000000 -0.000000 0.000002 0.000001 0.000003 -0.000001 -0.000000 0.000003 -0.000002 -0.000002 0.000003 -0.000001 -0.000000 0.000001 -0.000002 -0.000002 -8.020587 29.104088 7.655827 -24.846568 11.304223 29.134548 32.701962 121.145044 -30.427434 -8.088091 5.625853 -27.490555 15.061800 -14.238118 -12.274942 10.652968 -26.601749 13.514516 0.000001 -0.000002 -0.000001 19.237414 0.147125 44.669967 -0.156359 -1.095419 130.776006 0.000001 -0.000001 -0.000005 5.981510 -1.717662 59.670561 0.967266 0.104970 121.723697 -0.000002 -0.000003 -0.000001 0.026729 -7.126142 61.895352 0.865380 0.227849 115.797607 -0.000000 0.000001 0.000000 -16.993714 -12.001687 65.678600 0.697906 0.337703 141.340041 0.000003 -0.000002 -0.000002 0.000001 -0.000000 -0.000002 -0.000001 0.000001 -0.000001 0.000001 -0.000000 -0.000001 0.000002 -0.000005 0.000002 0.000002 -0.000004 0.000002 0.000002 -0.000005 0.000002 0.000002 -0.000004 0.000003 -0.000000 0.000000 -0.000000 -0.000000 0.000000 -0.000000 -0.000000 0.000000 -0.000000 -0.000000 0.000000 -0.000000 -0.000000 0.000000 -0.000000 -0.000000 0.000000 -0.000000 -0.000000 0.000000 -0.000000 0.000000 0.000000 0.000000 0.000000 -0.000000 -0.000000 
-11.526864 75.370453 2.059205 1.147548 7.639502 0.285972 -0.000000 0.000000 -0.000000 -70.105424 -8.284419 1.294563 50.554198 -19.187299 -7.174070 14.105293 -3.652016 -7.101367 0.000000 0.000002 0.000000 0.000000 -0.000001 -0.000000 -10.367818 -4.639026 -2.727079 76.589500 -11.516665 -7.431216 -40.151018 -2.304247 18.126489 0.000000 -0.000000 -0.000000 0.000000 0.000001 -0.000000 7.511665 0.072388 -1.603839 1.064139 -0.427327 -4.603812 1.086616 -0.427256 -4.603352 -1.245272 -2.036249 1.598583 -1.245274 -2.036250 1.598581 0.000001 0.000000 0.000000 -1.245271 -2.036252 1.598584 -1.245205 -2.036249 1.598586 -0.000000 -0.000000 0.000000 0.000001 0.000000 -0.000000 -8.676804 -25.765729 -10.075466 -18.326610 -15.006475 -10.670913 -143.139919 -54.309570 -144.303811 -8.338689 -4.453246 22.583595 13.542285 15.852888 10.916847 8.824510 26.648367 -9.992348 0.000003 0.000001 -0.000003 13.337077 4.780032 -39.370754 -0.419279 0.893003 -109.137735 0.000000 -0.000003 -0.000000 4.808475 3.926219 -52.134294 1.003514 0.176437 -103.588800 0.000001 -0.000002 0.000000 -0.215173 9.437545 -59.277894 0.838031 -0.028826 -100.964580 0.000000 0.000003 -0.000000 -13.745429 13.901475 -63.510500 0.719947 -0.132202 -121.198743 0.000001 0.000000 0.000000 -0.000000 0.000001 -0.000002 -0.000000 0.000001 -0.000002 -0.000001 0.000002 -0.000001 -0.000002 0.000003 -0.000000 -0.000002 0.000002 0.000000 -0.000002 0.000003 -0.000000 -0.000002 0.000003 -0.000001 -7.681964 25.388558 6.444246 -12.655749 14.347770 25.486337 5.490630 121.793652 -9.171643 -8.726471 2.964766 -28.818675 11.624273 -10.440126 -11.249725 11.086796 -29.256214 11.708951 -0.000000 0.000000 -0.000002 18.267577 0.888028 42.688512 -0.289857 -1.006616 121.263383 -0.000001 -0.000001 -0.000001 5.769976 -0.545409 57.834866 0.983919 -0.035226 114.143246 0.000001 0.000002 -0.000000 -0.199864 -6.375986 61.868851 0.850965 0.117630 109.628744 -0.000003 -0.000001 0.000003 -15.494084 -12.026859 66.080864 0.715303 0.240939 133.925953 0.000005 0.000002 -0.000000 0.000001 -0.000000 0.000002 -0.000001 -0.000000 0.000000 0.000001 -0.000000 -0.000000 -0.000000 0.000000 -0.000001 -0.000000 0.000001 -0.000003 -0.000000 0.000000 -0.000001 -0.000000 0.000001 -0.000003 0.000000 -0.000000 -0.000000 0.000000 -0.000000 -0.000000 0.000000 -0.000000 -0.000000 0.000000 -0.000000 -0.000000 0.000000 -0.000000 -0.000000 0.000000 -0.000000 -0.000000 0.000000 -0.000000 -0.000000 -0.000001 0.000001 -0.000000 -0.000000 0.000000 -0.000000 
-11.704719 78.115044 2.713561 4.073644 9.275291 0.504832 0.000000 -0.000001 -0.000000 -66.432612 -8.458212 -0.938612 41.506260 -18.924984 -5.204912 16.321085 -2.917347 -9.023949 0.000000 -0.000000 -0.000000 -0.000001 0.000001 -0.000000 -9.469503 -5.638893 -1.544826 67.976221 -12.733267 -8.253960 -37.082033 -1.461702 17.360736 0.000002 -0.000000 0.000000 -0.000000 0.000001 -0.000000 6.670317 -0.046933 -1.717054 -0.631354 -0.805339 -4.887749 -0.608884 -0.805301 -4.887262 -2.888440 -1.913231 1.381229 -2.888439 -1.913236 1.381236 0.000000 0.000000 0.000000 -2.888369 -1.913223 1.381230 -2.888456 -1.913244 1.381231 0.000000 0.000000 0.000000 0.000000 0.000000 -0.000001 -8.036797 -21.485210 -9.500182 -14.726077 -11.896507 -5.740293 -146.957175 -62.475283 -145.446365 -7.887416 -6.581180 25.772380 11.852995 13.783158 10.547938 7.134278 24.125492 -9.310034 0.000001 -0.000001 -0.000003 10.702071 -1.002487 -33.147396 -0.468596 0.763112 -96.351969 0.000002 -0.000003 0.000001 4.375458 -0.409752 -44.950687 0.966607 0.328663 -91.921055 -0.000001 -0.000005 0.000003 0.232665 6.121619 -52.931965 0.782595 0.078098 -89.957362 0.000002 0.000001 -0.000001 -11.103506 10.841525 -57.415882 0.696301 -0.010346 -106.970338 -0.000001 -0.000002 0.000001 -0.000000 0.000003 -0.000001 -0.000000 0.000003 -0.000001 -0.000001 0.000003 -0.000001 -0.000000 -0.000003 -0.000000 -0.000000 -0.000003 0.000000 -0.000000 -0.000003 -0.000000 0.000000 -0.000003 -0.000001 -7.296017 21.402408 5.049862 -4.773012 12.248316 21.979737 -14.800914 116.232485 8.083236 -8.901743 3.776058 -31.299591 4.230389 -1.918578 -6.476948 12.275584 -36.017903 7.415587 0.000001 -0.000003 -0.000004 16.370765 2.829254 38.403797 -0.505730 -0.751329 100.224782 -0.000002 0.000001 -0.000000 5.422002 2.068127 53.814381 0.933715 -0.307684 97.586977 0.000001 -0.000003 0.000000 -0.820412 -4.841745 62.096986 0.758522 -0.091736 96.422607 -0.000003 0.000001 -0.000000 -12.071940 -12.450887 67.577386 0.690953 0.049092 118.162300 -0.000001 -0.000000 -0.000000 -0.000001 0.000001 0.000000 -0.000001 0.000001 0.000001 -0.000001 0.000001 0.000002 -0.000001 0.000001 -0.000000 -0.000000 0.000002 0.000001 -0.000001 0.000001 -0.000000 -0.000000 0.000002 0.000001 -0.000001 -0.000001 -0.000000 -0.000001 -0.000001 -0.000000 -0.000001 -0.000001 -0.000000 -0.000001 -0.000001 -0.000000 -0.000001 -0.000001 -0.000000 -0.000001 -0.000001 -0.000000 -0.000001 -0.000001 -0.000000 0.000001 0.000001 -0.000000 0.000000 -0.000001 -0.000000 
